<?xml version="1.0" encoding="utf-8"?>
<!-- Generator: Adobe Illustrator 15.1.0, SVG Export Plug-In . SVG Version: 6.00 Build 0)  -->
<!DOCTYPE svg PUBLIC "-//W3C//DTD SVG 1.1//EN" "http://www.w3.org/Graphics/SVG/1.1/DTD/svg11.dtd">
<svg version="1.1" id="Layer_1" xmlns="http://www.w3.org/2000/svg" xmlns:xlink="http://www.w3.org/1999/xlink" x="0px" y="0px"
	 width="134.5px" height="44.961px" viewBox="0 0 134.5 44.961" enable-background="new 0 0 134.5 44.961" xml:space="preserve">
<g>
	<g>
		<path fill="#002248" d="M94.007,21.301l5.82-11.065l0.009-0.017c0.03-0.056,0.052-0.102,0.064-0.144l0,0
			c0.007-0.022,0.011-0.048,0.011-0.072c0-0.059,0.008-0.08,0.005-0.082c-0.007-0.008-0.051-0.012-0.133-0.012H94.62
			c-0.269,0-0.502,0.065-0.697,0.191c-0.198,0.131-0.373,0.332-0.525,0.603l-2.086,5.671l-0.519,1.409l-0.505-1.412l-2.024-5.657
			c-0.15-0.276-0.326-0.481-0.526-0.612c-0.19-0.128-0.42-0.194-0.688-0.194h-5.145c-0.086,0-0.13,0.02-0.13,0.054
			c0,0.039,0.006,0.076,0.018,0.114c0.012,0.047,0.033,0.094,0.061,0.143l0.01,0.02l5.727,11.083l0.132,0.25l-0.133,0.251
			l-6.728,12.719l-0.01,0.018c-0.028,0.048-0.047,0.097-0.061,0.14c-0.011,0.037-0.016,0.076-0.016,0.114
			c0,0.035-0.025,0.033-0.014,0.043H80.76c0.012,0.006,0.06,0.01,0.146,0.01h5.163c0.269,0,0.501-0.064,0.695-0.19
			c0.204-0.132,0.379-0.336,0.532-0.615l2.992-7.044l0.491-1.156l0.507,1.15l3.102,7.04c0.165,0.283,0.349,0.491,0.555,0.625
			c0.195,0.126,0.422,0.19,0.678,0.19h5.163c0.088,0,0.137-0.004,0.145-0.01c0.01-0.01-0.014-0.008-0.014-0.043
			c0-0.038-0.005-0.077-0.016-0.11c-0.014-0.044-0.033-0.088-0.062-0.134l-0.015-0.023L94.007,21.81l-0.135-0.254L94.007,21.301z
			 M77.958,34.75c0.08-0.081,0.121-0.232,0.121-0.458v-4.304c0-0.225-0.041-0.378-0.121-0.457v-0.002
			c-0.078-0.079-0.231-0.12-0.456-0.12h-6.287c-0.399,0-0.715-0.115-0.945-0.346v-0.002c-0.231-0.229-0.349-0.547-0.349-0.943
			v-2.365c0-0.379,0.109-0.753,0.327-1.032c0.226-0.287,0.548-0.47,0.967-0.47h5.664c0.225,0,0.378-0.041,0.459-0.122
			c0.079-0.078,0.119-0.231,0.119-0.455v-3.681c0-0.226-0.042-0.377-0.12-0.458l0,0c-0.08-0.082-0.233-0.121-0.458-0.121h-5.664
			c-0.397,0-0.714-0.118-0.944-0.348h-0.003c-0.231-0.231-0.347-0.547-0.347-0.946v-1.456c0-0.398,0.117-0.713,0.349-0.946
			l-0.002-0.001c0.232-0.23,0.548-0.347,0.947-0.347h6.287c0.225,0,0.378-0.041,0.456-0.121c0.08-0.08,0.121-0.232,0.121-0.457
			V10.49c0-0.225-0.041-0.378-0.121-0.458c-0.078-0.08-0.231-0.12-0.456-0.12h-8.72c-0.602,0-1.156,0.107-1.664,0.318
			c-0.505,0.212-0.971,0.532-1.392,0.96c-0.403,0.406-0.71,0.848-0.922,1.267c-0.228,0.452-0.343,0.858-0.343,1.151v16.319
			c0,0.923,0.108,1.641,0.321,2.23c0.208,0.571,0.522,1.031,0.942,1.451c0.422,0.424,0.887,0.74,1.393,0.95
			c0.506,0.207,1.061,0.311,1.665,0.311h8.72C77.727,34.869,77.877,34.828,77.958,34.75L77.958,34.75z M62.924,34.75
			c0.08-0.081,0.119-0.232,0.119-0.458v-4.304c0-0.225-0.039-0.378-0.119-0.457h-0.003c-0.08-0.081-0.232-0.122-0.458-0.122h-6.196
			c-0.398,0-0.713-0.115-0.946-0.348c-0.231-0.229-0.346-0.547-0.346-0.943V10.49c0-0.223-0.041-0.375-0.122-0.457l0.002-0.002
			c-0.082-0.08-0.235-0.12-0.459-0.12h-4.304c-0.384,0-0.578,0.194-0.578,0.579v23.802c0,0.226,0.041,0.378,0.119,0.458h0.001
			c0.081,0.078,0.234,0.119,0.458,0.119h12.371C62.69,34.869,62.843,34.828,62.924,34.75z"/>
		<path fill="#002248" d="M133.959,32.445c0.21-0.505,0.313-1.061,0.313-1.663v-6.797c0-0.604-0.104-1.161-0.313-1.665
			c-0.208-0.505-0.524-0.971-0.946-1.392c-0.426-0.424-0.89-0.741-1.396-0.95c-0.503-0.209-1.061-0.312-1.665-0.312h-3.778h-0.027
			l-0.034-0.005c-0.35-0.041-0.622-0.174-0.82-0.393c-0.2-0.226-0.3-0.511-0.3-0.859v-1.513c0-0.401,0.115-0.717,0.347-0.948h0.002
			c0.23-0.23,0.547-0.346,0.945-0.346h5.749c0.224,0,0.376-0.041,0.456-0.12V15.48c0.08-0.081,0.12-0.232,0.12-0.457V10.72
			c0-0.225-0.04-0.378-0.12-0.459c-0.08-0.079-0.232-0.119-0.456-0.119h-8.183c-0.603,0-1.158,0.107-1.663,0.317
			c-0.507,0.214-0.971,0.533-1.393,0.961c-0.424,0.429-0.742,0.897-0.952,1.403c-0.207,0.502-0.313,1.048-0.313,1.641v5.718
			c0,0.604,0.105,1.159,0.313,1.664c0.21,0.507,0.524,0.972,0.948,1.395l0.002-0.002c0.424,0.425,0.89,0.742,1.393,0.949
			c0.507,0.209,1.061,0.313,1.665,0.313h3.668c0.394,0,0.705,0.109,0.936,0.33c0.239,0.226,0.357,0.534,0.357,0.927v2.589
			c0,0.4-0.116,0.716-0.348,0.946c-0.229,0.231-0.545,0.347-0.945,0.347h-7.411c-0.225,0-0.377,0.039-0.456,0.118v0.003
			c-0.08,0.08-0.121,0.233-0.121,0.457v4.305c0,0.226,0.041,0.377,0.118,0.456h0.003c0.081,0.08,0.232,0.121,0.456,0.121h9.843
			c0.606,0,1.162-0.105,1.665-0.313c0.507-0.21,0.971-0.523,1.395-0.948v-0.001C133.435,33.414,133.751,32.949,133.959,32.445z"/>
		<path fill="#002248" d="M116.99,12.824c-0.209-0.506-0.527-0.974-0.951-1.403c-0.422-0.428-0.887-0.747-1.394-0.961
			c-0.507-0.21-1.061-0.317-1.662-0.317h-6.723c-0.603,0-1.158,0.107-1.663,0.317c-0.506,0.214-0.97,0.533-1.392,0.961
			c-0.426,0.429-0.744,0.896-0.952,1.403c-0.21,0.5-0.314,1.048-0.314,1.641v16.318c0,0.603,0.104,1.158,0.313,1.663
			c0.21,0.507,0.526,0.97,0.949,1.394l0.003,0.001c0.422,0.423,0.884,0.738,1.392,0.946c0.506,0.209,1.06,0.314,1.665,0.314h6.723
			c0.605,0,1.161-0.105,1.665-0.313c0.504-0.208,0.969-0.523,1.393-0.949v0.001c0.425-0.425,0.74-0.89,0.949-1.395
			s0.313-1.061,0.313-1.663V14.464C117.303,13.872,117.199,13.326,116.99,12.824z M111.845,28.348c0,0.398-0.116,0.714-0.35,0.946
			c-0.229,0.231-0.546,0.347-0.944,0.347h-1.857c-0.399,0-0.713-0.115-0.945-0.347c-0.233-0.232-0.348-0.548-0.348-0.946V16.896
			c0-0.398,0.114-0.713,0.347-0.944l0.001-0.004l0,0c0.234-0.23,0.548-0.346,0.945-0.346h1.857c0.399,0,0.715,0.116,0.944,0.346
			l0.003,0.004c0.23,0.229,0.347,0.543,0.347,0.944V28.348z"/>
		<path fill-rule="evenodd" clip-rule="evenodd" fill="#002248" d="M40.315,15.597l-2.133-5.153
			c-0.076-0.167-0.158-0.329-0.245-0.484C40.814,6.654,47.09,0,47.09,0s-4.755,3.907-10.499,8.411
			c-0.293-0.211-0.607-0.384-0.944-0.505l-5.156-2.135l-5.153-2.133c-1.279-0.488-2.539-0.5-3.586-0.001l-5.154,2.134l-5.152,2.135
			c-1.25,0.561-2.15,1.44-2.538,2.536l-2.136,5.154l-2.133,5.152c-0.487,1.28-0.501,2.539-0.002,3.586l2.135,5.156l2.134,5.15
			C8.936,34.707,8.969,34.767,9,34.83C5.89,38.434,0,45.087,0,45.087s4.755-3.906,10.499-8.411c0.293,0.212,0.607,0.385,0.944,0.503
			l5.156,2.137l5.151,2.135c1.281,0.486,2.539,0.5,3.586,0l5.156-2.135l5.152-2.135c1.25-0.561,2.149-1.44,2.538-2.534l2.134-5.155
			l2.135-5.152c0.487-1.282,0.5-2.54,0-3.588L40.315,15.597z M12.906,9.673l4.531-1.875L21.97,5.92
			c0.92-0.44,2.027-0.427,3.153,0.002l4.53,1.875l4.532,1.876c0.173,0.063,0.337,0.142,0.497,0.231
			c-5.057,3.959-7.831,6.14-9.57,7.238c-1.893,1.195-1.994,0.847-3.189,0.099c-0.614-0.384-2.182-1.629-3.516-2.808
			c-2.844-2.517-2.865-2.077-7.919-2.076l0.189-0.455C11.017,10.94,11.807,10.167,12.906,9.673z M8.798,28.651L6.92,24.119
			c-0.438-0.921-0.427-2.028,0.002-3.153l1.875-4.532l1.681-4.056c0.312,0.334,4.798,5.172,7.059,8.153
			c0.459,0.608,0.784,1.117,1.011,1.541c0.036,0.125,0.061,0.247,0.067,0.362c0.028,0.587-0.354,1.047-0.673,1.551
			c-0.73,1.155-4.714,5.874-7.356,8.986L8.798,28.651z M34.184,35.413l-4.531,1.877l-4.532,1.877c-0.921,0.44-2.028,0.428-3.154,0
			l-4.53-1.877l-4.533-1.877c-0.172-0.063-0.336-0.142-0.496-0.231c5.001-3.906,7.472-5.785,9.162-6.953
			c1.843-1.273,2.26-1.114,3.349-0.403c0.412,0.271,1.29,1.024,2.219,1.87c3.589,3.261,3.339,3.624,8.367,3.586
			c0.424-0.003,0.706,0.016,0.862,0.012C36.007,34.203,35.239,34.939,34.184,35.413z M40.167,24.121l-1.877,4.53l-1.849,4.465
			c-0.11-0.124-0.333-0.33-0.649-0.675c-1.438-1.572-5.198-5.587-6.957-7.908c-0.304-0.4-0.59-0.828-0.791-1.16
			c-0.168-0.383-0.275-0.938,0.031-1.574c0.052-0.108,0.111-0.216,0.177-0.321c0.689-1.09,5.246-6.337,8.11-9.679
			c0.017,0.037,0.036,0.07,0.052,0.105l1.875,4.53l1.879,4.534C40.608,21.889,40.597,22.996,40.167,24.121z"/>
	</g>
</g>
</svg>
